<?xml version="1.0" encoding="iso-8859-1"?>
<!-- Generator: Adobe Illustrator 19.0.0, SVG Export Plug-In . SVG Version: 6.00 Build 0)  -->
<svg version="1.1" id="Capa_1" xmlns="http://www.w3.org/2000/svg" xmlns:xlink="http://www.w3.org/1999/xlink" x="0px" y="0px"
	 viewBox="0 0 512 512" style="enable-background:new 0 0 512 512;" xml:space="preserve">
<g>
	<g>
		<path d="M256,0c-5.888,0-10.667,4.779-10.667,10.667v42.667C245.333,59.221,250.112,64,256,64s10.667-4.779,10.667-10.667V10.667
			C266.667,4.779,261.888,0,256,0z"/>
	</g>
</g>
<g>
	<g>
		<path d="M426.667,170.667H384c-5.888,0-10.667,4.779-10.667,10.667S378.112,192,384,192h42.667
			c5.888,0,10.667-4.779,10.667-10.667S432.555,170.667,426.667,170.667z"/>
	</g>
</g>
<g>
	<g>
		<path d="M128,170.667H85.333c-5.888,0-10.667,4.779-10.667,10.667S79.445,192,85.333,192H128c5.888,0,10.667-4.779,10.667-10.667
			S133.888,170.667,128,170.667z"/>
	</g>
</g>
<g>
	<g>
		<path d="M384.213,53.12c-4.16-4.16-10.923-4.16-15.083,0l-30.165,30.165c-4.16,4.16-4.16,10.923,0,15.083
			c2.091,2.069,4.821,3.115,7.552,3.115c2.731,0,5.461-1.045,7.531-3.115l30.165-30.165C388.373,64.043,388.373,57.28,384.213,53.12
			z"/>
	</g>
</g>
<g>
	<g>
		<path d="M173.035,83.285L142.869,53.12c-4.16-4.16-10.923-4.16-15.083,0c-4.16,4.16-4.16,10.923,0,15.083l30.144,30.165
			c2.091,2.069,4.821,3.115,7.552,3.115s5.461-1.045,7.552-3.115C177.195,94.208,177.195,87.445,173.035,83.285z"/>
	</g>
</g>
<g>
	<g>
		<path d="M371.243,310.101c-15.36-20.501-44.117-25.429-65.472-11.221L288,310.72V181.333c0-17.643-14.357-32-32-32
			s-32,14.357-32,32v33.813c-3.328-1.173-6.933-1.813-10.667-1.813c-14.72,0-27.179,10.005-30.869,23.573
			c-3.669-1.429-7.637-2.24-11.797-2.24c-14.72,0-27.179,10.005-30.869,23.573C136.128,256.811,132.16,256,128,256
			c-17.643,0-32,14.357-32,32v85.333c0,52.928,43.072,96,96,96h35.84c20.885,0,40.939-8.832,55.061-24.192l86.336-94.208
			C379.627,339.563,380.48,322.411,371.243,310.101z M353.493,336.491l-86.336,94.208C257.088,441.707,242.752,448,227.84,448H192
			c-41.173,0-74.667-33.493-74.667-74.667V288c0-5.888,4.779-10.667,10.667-10.667s10.667,4.779,10.667,10.667v10.667
			c0,5.888,4.779,10.667,10.667,10.667S160,304.555,160,298.667v-32c0-5.888,4.779-10.667,10.667-10.667s10.667,4.779,10.667,10.667
			v32c0,5.888,4.779,10.667,10.667,10.667s10.667-4.779,10.667-10.667v-53.333c0-5.888,4.779-10.667,10.667-10.667
			S224,239.445,224,245.333v53.333c0,5.888,4.779,10.667,10.667,10.667s10.667-4.779,10.667-10.667V181.333
			c0-5.888,4.779-10.667,10.667-10.667s10.667,4.779,10.667,10.667v149.333c0,3.947,2.197,7.531,5.653,9.387
			c3.456,1.856,7.68,1.643,10.944-0.533l34.347-22.912c11.925-7.915,27.968-5.184,36.565,6.272
			C357.248,326.976,356.971,332.715,353.493,336.491z"/>
	</g>
</g>
<g>
	<g>
		<path d="M277.333,448H128c-5.888,0-10.667,4.779-10.667,10.667v42.667c0,5.888,4.779,10.667,10.667,10.667
			s10.667-4.779,10.667-10.667v-32h128v32c0,5.888,4.779,10.667,10.667,10.667S288,507.221,288,501.333v-42.667
			C288,452.779,283.221,448,277.333,448z"/>
	</g>
</g>
<g>
	<g>
		<path d="M256,106.667c-41.173,0-74.667,33.493-74.667,74.667c0,5.888,4.779,10.667,10.667,10.667s10.667-4.779,10.667-10.667
			C202.667,151.936,226.603,128,256,128s53.333,23.936,53.333,53.333c0,5.888,4.779,10.667,10.667,10.667
			s10.667-4.779,10.667-10.667C330.667,140.16,297.173,106.667,256,106.667z"/>
	</g>
</g>
<g>
</g>
<g>
</g>
<g>
</g>
<g>
</g>
<g>
</g>
<g>
</g>
<g>
</g>
<g>
</g>
<g>
</g>
<g>
</g>
<g>
</g>
<g>
</g>
<g>
</g>
<g>
</g>
<g>
</g>
</svg>
